<svg xmlns="http://www.w3.org/2000/svg" width="1179.883" height="477.5"><defs><clipPath id="a"><path fill="none" d="M0 0h1179.883v477.5H0z"/></clipPath></defs><g clip-path="url(#a)"><g transform="translate(714.913 47.977)" fill="none" stroke="#efefef" stroke-width="6"><circle cx="21.776" cy="21.776" r="21.776" stroke="none"/><circle cx="21.776" cy="21.776" r="18.776"/></g><g transform="translate(704.913 294.977)" fill="none" stroke="#efefef" stroke-width="6"><circle cx="16.276" cy="16.276" r="16.276" stroke="none"/><circle cx="16.276" cy="16.276" r="13.276"/></g><g transform="translate(1070.577)" fill="none" stroke="#efefef" stroke-width="6"><circle cx="13.776" cy="13.776" r="13.776" stroke="none"/><circle cx="13.776" cy="13.776" r="10.776"/></g><g transform="translate(1117.947 134.405)" fill="none" stroke="#efefef" stroke-width="6"><circle cx="20.776" cy="20.776" r="20.776" stroke="none"/><circle cx="20.776" cy="20.776" r="17.776"/></g><path d="M1102.104 217.11l39.044 15.059-33.208 25.714zm-390.562-55.506l10.77 40.447-40.33-11.754zM816.234 83.31l26.386 20.678-31.461 11.923zm352.337-36.11l-24.148 23.25-7.428-32.814zM772.52 172.37l10.616 4.509 4.638-10.401 5.61 2.5 5.001 2.124 4.634-10.407.133.06.086-.183 10.356 4.832 4.673-10.488.133.06.085-.184 15.996 7.462-2.648 5.678-10.355-4.832-4.674 10.489-.132-.06-.085.183-10.356-4.836-4.672 10.49-5.607-2.5-5.005-2.126-4.634 10.406-5.574-2.483-10.668-4.528zm306.032 282.006l10.612 4.504 4.633-10.397 5.609 2.498 4.999 2.121 4.63-10.402.133.06.086-.183 10.351 4.827 4.669-10.484.133.06.085-.184 15.991 7.456-2.646 5.675-10.352-4.827-4.669 10.485-.132-.06-.085.183-10.352-4.832-4.668 10.486-5.605-2.497-5.003-2.124-4.63 10.402-5.572-2.48-10.664-4.524zm15.072-354.871l-3.529-10.247-10.175 3.315-1.784-5.488-1.667-4.827-10.173 3.305-.043-.13-.18.054-3.139-10.266-10.26 3.333-.042-.13-.181.055-4.85-15.858 5.628-1.72 3.14 10.266 10.258-3.333.042.13.182-.055 3.138 10.266 10.26-3.334 1.782 5.485 1.663 4.83 10.176-3.307 1.769 5.454 3.548 10.293zM824.021 38.567v-9.7h-9.7v-8.63h9.7v-9.7h8.625v9.7h9.7v8.624h-9.7v9.7zm-72.108 225.401v-9.7h-9.7v-8.63h9.7v-9.7h8.625v9.7h9.7v8.624h-9.7v9.7zm410.816 49.744l-5.907-9.093-9.093 5.907-5.25-8.082 9.093-5.907-5.907-9.094 8.083-5.25 5.907 9.094 9.093-5.907 5.25 8.082-9.093 5.907 5.907 9.093zM710.923 463.01l-1.65-7.148-7.147 1.65-1.466-6.352 7.146-1.65-1.65-7.147 6.353-1.466 1.65 7.147 7.146-1.65 1.466 6.352-7.146 1.65 1.65 7.145zm343.25-301.05l.905-12.907-12.906-.905.805-11.47 12.906.905.905-12.907 11.471.805-.905 12.907 12.905.905-.805 11.47-12.905-.905-.905 12.906zM922.918 88.035l-4.235-9.976-9.919 4.017-2.162-5.35-2-4.7-9.918 4.007-.051-.127-.177.067-3.847-10.022-10.002 4.04-.051-.127-.178.068-5.943-15.481 5.494-2.109 3.848 10.023 10.001-4.04.05.126.178-.068 3.847 10.022 10.002-4.04 2.16 5.347 1.996 4.702 9.921-4.009 2.145 5.318 4.257 10.02zM1127.53 350.21l30.76 8.82-8.82 30.76-30.76-8.82zm-457.313 31.861l26.208-18.368 18.368 26.208-26.208 18.368z" fill="#efefef"/><path fill="none" stroke="#6a696b" stroke-width=".5" opacity=".3" d="M0 477.5h1171"/></g></svg>